<svg width="24" height="24" viewBox="0 0 24 24" fill="none" xmlns="http://www.w3.org/2000/svg">
<path d="M12.2672 6.26154C13.2656 6.26154 14.5172 5.5658 15.2625 4.63814C15.9375 3.79746 16.4297 2.62339 16.4297 1.44933C16.4297 1.28989 16.4156 1.13045 16.3875 1C15.2766 1.04348 13.9406 1.76821 13.1391 2.73935C12.5063 3.47858 11.9297 4.63814 11.9297 5.8267C11.9297 6.00064 11.9578 6.17457 11.9719 6.23255C12.0422 6.24704 12.1547 6.26154 12.2672 6.26154ZM8.75156 23.8C10.1156 23.8 10.7203 22.8578 12.4219 22.8578C14.1516 22.8578 14.5312 23.771 16.05 23.771C17.5406 23.771 18.5391 22.3505 19.4813 20.9591C20.5359 19.3647 20.9719 17.7992 21 17.7268C20.9016 17.6978 18.0469 16.4947 18.0469 13.1175C18.0469 10.1896 20.2969 8.87056 20.4234 8.7691C18.9328 6.56592 16.6688 6.50795 16.05 6.50795C14.3766 6.50795 13.0125 7.55156 12.1547 7.55156C11.2266 7.55156 10.0031 6.56593 8.55469 6.56593C5.79844 6.56593 3 8.91405 3 13.3494C3 16.1034 4.04063 19.0168 5.32031 20.9011C6.41719 22.4955 7.37344 23.8 8.75156 23.8Z" fill="black"/>
</svg>
