<svg width="196" height="9" viewBox="0 0 196 9" fill="none" xmlns="http://www.w3.org/2000/svg">
<path d="M5.57303e-06 8.84662V0.119346H5.4716V1.25287H1.31677V3.91196H5.18609V5.04122H1.31677V7.7131H5.52273V8.84662H5.57303e-06ZM9.63047 8.84662V0.119346H10.9472V7.7131H14.9018V8.84662H9.63047ZM18.8039 8.84662V0.119346H24.2755V1.25287H20.1207V3.91196H23.99V5.04122H20.1207V7.7131H24.3266V8.84662H18.8039ZM29.1972 0.119346L31.6261 7.2273H31.7242L34.1531 0.119346H35.5764L32.4358 8.84662H30.9145L27.7739 0.119346H29.1972ZM39.0833 8.84662H37.6856L40.8262 0.119346H42.3475L45.4881 8.84662H44.0904L41.6231 1.70457H41.5549L39.0833 8.84662ZM39.3177 5.429H43.8518V6.53696H39.3177V5.429ZM47.6868 1.25287V0.119346H54.4411V1.25287H51.718V8.84662H50.4055V1.25287H47.6868ZM58.3336 8.84662V0.119346H63.8052V1.25287H59.6504V3.91196H63.5197V5.04122H59.6504V7.7131H63.8563V8.84662H58.3336ZM73.1094 1.25287V0.119346H79.8637V1.25287H77.1407V8.84662H75.8282V1.25287H73.1094ZM83.7563 8.84662V0.119346H85.073V3.91196H89.4239V0.119346H90.7449V8.84662H89.4239V5.04122H85.073V8.84662H83.7563ZM95.0625 8.84662V0.119346H100.534V1.25287H96.3793V3.91196H100.249V5.04122H96.3793V7.7131H100.585V8.84662H95.0625ZM110.269 0.119346H111.867L114.645 6.90344H114.747L117.526 0.119346H119.124V8.84662H117.871V2.53128H117.79L115.216 8.83383H114.176L111.603 2.52702H111.522V8.84662H110.269V0.119346ZM131.019 4.48298C131.019 5.4148 130.849 6.21594 130.508 6.88639C130.167 7.554 129.7 8.06821 129.106 8.42901C128.515 8.78696 127.843 8.96594 127.09 8.96594C126.335 8.96594 125.66 8.78696 125.066 8.42901C124.475 8.06821 124.009 7.55258 123.668 6.88213C123.327 6.21168 123.157 5.41196 123.157 4.48298C123.157 3.55116 123.327 2.75145 123.668 2.08383C124.009 1.41338 124.475 0.899175 125.066 0.541221C125.66 0.180425 126.335 2.74181e-05 127.09 2.74181e-05C127.843 2.74181e-05 128.515 0.180425 129.106 0.541221C129.7 0.899175 130.167 1.41338 130.508 2.08383C130.849 2.75145 131.019 3.55116 131.019 4.48298ZM129.715 4.48298C129.715 3.77275 129.6 3.17474 129.37 2.68895C129.143 2.20031 128.83 1.83099 128.433 1.58099C128.038 1.32815 127.59 1.20173 127.09 1.20173C126.587 1.20173 126.139 1.32815 125.744 1.58099C125.349 1.83099 125.036 2.20031 124.806 2.68895C124.579 3.17474 124.465 3.77275 124.465 4.48298C124.465 5.19321 124.579 5.79264 124.806 6.28128C125.036 6.76707 125.349 7.13639 125.744 7.38923C126.139 7.63923 126.587 7.76423 127.09 7.76423C127.59 7.76423 128.038 7.63923 128.433 7.38923C128.83 7.13639 129.143 6.76707 129.37 6.28128C129.6 5.79264 129.715 5.19321 129.715 4.48298ZM135.39 0.119346L137.819 7.2273H137.917L140.346 0.119346H141.769L138.629 8.84662H137.107L133.967 0.119346H135.39ZM145.43 8.84662V0.119346H150.901V1.25287H146.746V3.91196H150.616V5.04122H146.746V7.7131H150.952V8.84662H145.43ZM155.06 0.119346H156.658L159.437 6.90344H159.539L162.317 0.119346H163.915V8.84662H162.662V2.53128H162.581L160.008 8.83383H158.968L156.394 2.52702H156.313V8.84662H155.06V0.119346ZM168.23 8.84662V0.119346H173.701V1.25287H169.546V3.91196H173.416V5.04122H169.546V7.7131H173.752V8.84662H168.23ZM184.904 0.119346V8.84662H183.694L179.258 2.44605H179.177V8.84662H177.86V0.119346H179.079L183.519 6.52844H183.6V0.119346H184.904ZM188.795 1.25287V0.119346H195.549V1.25287H192.826V8.84662H191.513V1.25287H188.795Z" fill="#605E5A"/>
</svg>
