<svg width="44" height="23" viewBox="0 0 44 23" fill="none" xmlns="http://www.w3.org/2000/svg">
<path d="M-6.49691e-06 22.304V1.52588e-05H7.12962C9.60856 1.52588e-05 11.487 0.535482 12.7648 1.60642C14.0427 2.67735 14.6816 4.27735 14.6816 6.40642C14.6816 8.53549 14.0352 10.16 12.7424 11.28C11.4496 12.4 9.57869 12.96 7.12962 12.96H3.66725V22.304H-6.49691e-06ZM3.66725 9.67038H6.75202C8.0832 9.67038 9.12106 9.42185 9.86559 8.9248C10.6101 8.42774 10.9824 7.60321 10.9824 6.45122C10.9824 5.3291 10.625 4.52484 9.91039 4.03845C9.19573 3.55206 8.14294 3.30886 6.75202 3.30886H3.66725V9.67038ZM19.5904 22.5984C18.5536 22.5984 17.6981 22.2806 17.024 21.6448C16.3499 21.0091 16.0128 19.9979 16.0128 18.6112V1.52588e-05H19.5456V17.92C19.5456 18.4192 19.6587 18.7776 19.8848 18.9952C20.111 19.2128 20.4075 19.3216 20.7744 19.3216C20.9579 19.3216 21.152 19.3024 21.3568 19.264C21.5616 19.2256 21.775 19.1722 21.9968 19.104V22.1248C21.583 22.2912 21.1627 22.4118 20.736 22.4864C20.3094 22.5611 19.9275 22.5984 19.5904 22.5984ZM23.1936 22.304V6.52802H26.7392V22.304H23.1936ZM23.0272 3.94883V1.52588e-05H26.9184V3.94883H23.0272ZM36.1856 22.5984C34.8629 22.5984 33.7184 22.3819 32.752 21.9488C31.7856 21.5157 30.992 20.9195 30.3712 20.16C29.7504 19.4005 29.2896 18.5355 28.9888 17.5648C28.688 16.5941 28.5376 15.5776 28.5376 14.5152C28.5376 13.4699 28.6848 12.4534 28.9792 11.4656C29.2736 10.4779 29.7184 9.59149 30.3136 8.80642C30.9088 8.02135 31.6736 7.39628 32.608 6.93122C33.5424 6.46615 34.6496 6.23361 35.9296 6.23361C37.1541 6.23361 38.2197 6.44161 39.1264 6.85761C40.0331 7.27361 40.7819 7.84855 41.3728 8.58241C41.9638 9.31628 42.4064 10.1568 42.7008 11.104C42.9952 12.0512 43.1424 13.056 43.1424 14.1184C43.1424 14.255 43.1371 14.463 43.1264 14.7424C43.1158 15.0219 43.0891 15.3003 43.0464 15.5776H32.0832C32.1728 16.8406 32.6016 17.8048 33.3696 18.4704C34.1376 19.136 35.1254 19.4688 36.3328 19.4688C37.1904 19.4688 37.9861 19.3258 38.72 19.04C39.4539 18.7541 40.1195 18.3189 40.7168 17.7344L42.6688 20.0896C41.9904 20.6827 41.3227 21.1638 40.6656 21.5328C40.0085 21.9019 39.3227 22.1718 38.608 22.3424C37.8933 22.5131 37.0859 22.5984 36.1856 22.5984ZM39.6352 13.792C39.6778 13.6213 39.7088 13.4507 39.728 13.28C39.7472 13.1093 39.7568 12.9429 39.7568 12.7808C39.7568 12.3115 39.6725 11.8614 39.504 11.4304C39.3354 10.9995 39.0922 10.6166 38.7744 10.2816C38.4565 9.94671 38.0661 9.68218 37.6032 9.48805C37.1403 9.29392 36.608 9.19686 36.0064 9.19686C35.1744 9.19686 34.4726 9.37605 33.9008 9.73445C33.3291 10.0928 32.8918 10.5558 32.5888 11.1232C32.2859 11.6907 32.1024 12.2987 32.0384 12.9472H40.8128L39.6352 13.792ZM34.6432 4.53762L38.1824 1.52588e-05H42.0033L37.248 4.53762H34.6432Z" fill="black"/>
</svg>
